<?xml version='1.0' encoding='utf-8'?>
<svg xmlns="http://www.w3.org/2000/svg" version="1.1" width="293.76" height="325.44"> <g id="dp_dp001" transform="matrix(1,0,0,1,406.717,-212.856)"> <path id="dp_path002" fill="#c83b39" fill-rule="evenodd" stroke="none" stroke-width="0" d="M -278.277,474.012 C -279.489,474.724 -281.047,475.04 -282.277,475.04 C -284.185,475.04 -285.817,474.384 -287.165,473.068 C -288.168,472.097 -301.813,394.6 -302.429,395.28 C -303.715,396.685 -309.248,404.948 -311.803,406.024 C -312.88,406.491 -354.972,406.643 -364.149,406.497 C -370.311,403.081 -370.001,397.775 -368.963,392.251 C -368.389,392.005 -318.499,391.799 -318.259,391.691 L -301.813,370.377 C -299.388,368.483 -295.277,368.865 -293.092,370.945 L -279.613,438.661 C -278.856,436.797 -244.1,347.408 -243.411,347.163 L -241.7,347.163 C -241.361,347.163 -241.016,347.509 -240.635,347.528 C -239.748,347.832 -231.403,408.128 -230.621,408.128 C -230.356,407.524 -220.244,392.956 -219.449,392.547 L -145.451,392.181 C -143.155,397.231 -143.552,401.856 -145.691,406.207 C -146.349,406.435 -212.212,406.687 -212.457,406.881 C -213.147,407.441 -231.359,436.143 -232.96,437.289 C -235.015,438.763 -238.407,438.673 -240.376,437.119 C -240.887,436.721 -247.055,390.872 -247.165,389.827 C -247.295,390.173 -277.729,473.684 -278.277,474.012 Z M -259.579,505.352 C -220.059,521.625 -220.145,535.336 -178.821,499.331 C -63.9853,399.273 -170.549,237.312 -259.579,330.763 C -365.959,234.095 -449.935,413.275 -337.461,501.321 C -294.163,535.211 -298.631,522.596 -259.579,505.352 Z "/> <path id="dp_path003" fill="#56330f" fill-rule="evenodd" stroke="none" stroke-width="0" d="M -265.683,243.78 C -259.693,240.601 -253.927,238.953 -248.443,239.024 C -243.403,239.095 -238.596,240.601 -234.061,243.709 C -225.744,267.616 -234.764,291.276 -251.917,307.992 C -256.983,310.299 -260.827,309.416 -263.193,304.625 C -258.56,286.015 -257.893,266.192 -265.683,243.78 Z "/> <polygon id="dp_polygon004" fill="#42974e" fill-rule="evenodd" stroke="none" stroke-width="0" points="-326.512,289.351 -326.553,289.317 -326.757,289.161 -327.164,288.845 -327.564,288.528 -327.963,288.211 -328.353,287.893 -328.743,287.573 -329.127,287.252 -329.507,286.929 -329.881,286.605 -330.253,286.281 -330.619,285.956 -330.981,285.629 -331.341,285.301 -331.695,284.971 -332.045,284.64 -332.391,284.311 -332.733,283.977 -333.072,283.644 -333.405,283.311 -333.736,282.973 -334.063,282.637 -334.384,282.3 -334.701,281.96 -335.016,281.62 -335.325,281.279 -335.632,280.939 -335.935,280.593 -336.232,280.251 -336.527,279.905 -336.819,279.559 -337.104,279.212 -337.388,278.864 -337.668,278.515 -337.944,278.165 -338.216,277.813 -338.485,277.461 -338.751,277.108 -339.269,276.4 -339.773,275.687 -340.265,274.971 -340.741,274.252 -341.205,273.528 -341.653,272.801 -342.091,272.072 -342.513,271.34 -342.924,270.604 -343.321,269.867 -343.705,269.124 -344.079,268.381 -344.437,267.635 -344.785,266.885 -345.121,266.136 -345.445,265.384 -345.757,264.629 -346.057,263.875 -346.348,263.119 -346.627,262.36 -346.895,261.603 -347.151,260.844 -347.399,260.084 -347.635,259.327 -347.859,258.567 -348.076,257.808 -348.281,257.051 -348.479,256.295 -348.664,255.539 -348.841,254.785 -349.009,254.032 -349.169,253.281 -349.32,252.533 -349.461,251.787 -349.595,251.044 -349.719,250.304 -349.836,249.569 -349.944,248.836 -350.045,248.108 -350.14,247.384 -350.225,246.663 -350.305,245.947 -350.376,245.235 -350.441,244.529 -350.499,243.829 -350.552,243.135 -350.595,242.447 -350.633,241.764 -350.667,241.088 -350.693,240.417 -350.715,239.753 -350.729,239.099 -350.739,238.449 -350.744,237.808 -350.743,237.173 -350.739,236.549 -350.729,235.929 -350.715,235.32 -350.697,234.716 -350.673,234.124 -350.647,233.54 -350.616,232.964 -350.583,232.397 -350.547,231.839 -350.504,231.289 -350.461,230.751 -350.413,230.221 -350.364,229.701 -350.257,228.691 -350.143,227.719 -350.02,226.792 -349.891,225.903 -349.76,225.059 -349.623,224.26 -349.485,223.504 -349.347,222.796 -349.211,222.133 -349.077,221.517 -348.947,220.952 -348.823,220.435 -348.707,219.967 -348.597,219.552 -348.499,219.189 -348.336,218.625 -348.231,218.279 -348.192,218.163 -342.597,219.584 -337.021,220.635 -331.464,221.348 -330.392,221.559 -329.849,221.667 -329.3,221.777 -328.747,221.887 -328.187,222 -327.624,222.115 -327.056,222.231 -326.483,222.348 -325.905,222.468 -325.324,222.588 -324.739,222.711 -324.152,222.839 -323.56,222.967 -322.964,223.095 -322.364,223.227 -321.76,223.361 -321.156,223.497 -320.547,223.637 -319.935,223.779 -319.32,223.923 -318.703,224.072 -318.085,224.221 -317.464,224.375 -316.839,224.531 -316.212,224.691 -315.585,224.853 -314.957,225.02 -314.325,225.189 -313.693,225.363 -313.06,225.54 -312.425,225.721 -311.788,225.909 -311.152,226.099 -310.515,226.292 -309.877,226.491 -309.237,226.693 -308.599,226.904 -307.96,227.116 -307.32,227.333 -306.681,227.559 -306.041,227.788 -305.401,228.023 -304.763,228.264 -304.125,228.511 -303.489,228.764 -302.852,229.023 -302.219,229.288 -301.585,229.56 -300.952,229.84 -300.321,230.125 -299.691,230.42 -299.064,230.721 -298.436,231.029 -297.812,231.347 -297.191,231.669 -296.571,232.003 -295.953,232.343 -295.339,232.692 -294.727,233.051 -294.117,233.417 -293.511,233.793 -292.907,234.179 -292.307,234.573 -292.264,234.601 -292.113,234.699 -292.061,234.739 -291.481,235.132 -290.911,235.531 -290.348,235.932 -289.796,236.337 -289.255,236.745 -288.719,237.156 -288.193,237.572 -287.677,237.989 -287.171,238.411 -286.671,238.836 -286.181,239.264 -285.699,239.695 -285.227,240.129 -284.761,240.567 -284.305,241.008 -283.86,241.452 -283.42,241.9 -282.989,242.351 -282.565,242.803 -282.151,243.26 -281.744,243.719 -281.345,244.18 -280.955,244.647 -280.571,245.113 -280.195,245.583 -279.829,246.055 -279.468,246.529 -279.115,247.008 -278.769,247.488 -278.431,247.969 -278.101,248.453 -277.779,248.94 -277.463,249.429 -277.153,249.919 -276.852,250.409 -276.556,250.904 -276.267,251.399 -275.985,251.897 -275.711,252.396 -275.443,252.896 -275.183,253.4 -274.928,253.901 -274.68,254.407 -274.437,254.911 -274.204,255.416 -273.975,255.925 -273.751,256.432 -273.535,256.941 -273.324,257.452 -273.12,257.961 -272.923,258.472 -272.728,258.983 -272.541,259.495 -272.36,260.005 -272.184,260.517 -272.016,261.029 -271.851,261.541 -271.693,262.053 -271.539,262.565 -271.391,263.075 -271.248,263.587 -271.111,264.097 -270.979,264.607 -270.852,265.117 -270.729,265.627 -270.612,266.135 -270.5,266.641 -270.392,267.149 -270.289,267.653 -270.191,268.157 -270.097,268.663 -270.009,269.163 -269.924,269.664 -269.843,270.163 -269.768,270.661 -269.696,271.157 -269.629,271.653 -269.565,272.145 -269.507,272.637 -269.452,273.127 -269.4,273.613 -269.352,274.1 -269.308,274.584 -269.268,275.067 -269.232,275.545 -269.199,276.021 -269.144,276.969 -269.103,277.907 -269.073,278.835 -269.057,279.749 -269.052,280.656 -269.059,281.548 -269.076,282.429 -269.104,283.295 -269.141,284.149 -269.189,284.989 -269.244,285.815 -269.307,286.624 -269.376,287.42 -269.453,288.199 -269.537,288.96 -269.625,289.705 -269.719,290.433 -269.82,291.143 -269.923,291.833 -270.029,292.505 -270.139,293.157 -271.289,292.479 -272.46,291.775 -273.653,291.045 -274.868,290.287 -276.108,289.504 -276.739,289.099 -277.376,288.687 -278.02,288.267 -278.669,287.839 -279.329,287.403 -279.996,286.96 -280.671,286.508 -281.355,286.045 -282.044,285.576 -282.744,285.095 -283.452,284.607 -284.167,284.109 -284.895,283.603 -285.629,283.087 -286.375,282.559 -287.127,282.023 -287.892,281.477 -288.667,280.921 -289.452,280.355 -290.247,279.78 -291.053,279.193 -291.871,278.596 -292.697,277.988 -293.537,277.369 -294.388,276.74 -295.251,276.101 -296.125,275.449 -297.012,274.785 -297.912,274.113 -298.823,273.428 -299.748,272.731 -300.684,272.021 -301.635,271.3 -302.599,270.567 -303.575,269.82 -304.567,269.06 -305.572,268.288 -306.592,267.5 -307.625,266.7 -308.673,265.881 -309.736,265.051 -310.816,264.204 -313.02,262.457 -315.285,260.639 -317.619,258.737 -320.016,256.747 -322.487,254.653 -325.028,252.441 -323.233,254.708 -321.489,256.893 -319.791,259.007 -318.141,261.056 -314.972,264.984 -311.976,268.715 -309.139,272.275 -306.456,275.681 -303.915,278.949 -301.513,282.084 -299.237,285.089 -297.084,287.969 -293.103,293.363 -291.263,295.877 -289.511,298.28 -287.84,300.569 -286.241,302.751 -286.761,302.737 -287.288,302.723 -287.819,302.703 -288.357,302.677 -288.901,302.649 -289.453,302.617 -290.009,302.58 -290.573,302.54 -291.141,302.495 -291.715,302.445 -292.293,302.391 -292.877,302.331 -293.467,302.265 -294.06,302.197 -294.659,302.12 -295.261,302.04 -295.869,301.953 -296.481,301.861 -297.097,301.764 -297.716,301.66 -298.34,301.551 -298.965,301.433 -299.599,301.311 -300.231,301.183 -300.868,301.047 -301.508,300.905 -302.151,300.755 -302.797,300.599 -303.445,300.435 -304.095,300.265 -304.747,300.087 -305.403,299.901 -306.057,299.708 -306.716,299.508 -307.376,299.299 -308.037,299.083 -308.701,298.857 -309.364,298.625 -310.029,298.384 -310.695,298.135 -311.36,297.875 -312.027,297.609 -312.695,297.333 -313.361,297.051 -314.028,296.756 -314.697,296.455 -315.363,296.144 -316.029,295.823 -316.695,295.492 -317.361,295.153 -318.025,294.805 -318.688,294.447 -319.351,294.077 -320.012,293.7 -320.671,293.311 -321.329,292.913 -321.984,292.504 -322.639,292.087 -323.292,291.657 -323.94,291.216 -324.587,290.767 -325.231,290.305 -325.871,289.833 -326.512,289.351"/> </g> </svg>